<svg width="672" height="217" xmlns="http://www.w3.org/2000/svg" xmlns:xlink="http://www.w3.org/1999/xlink" xml:space="preserve" overflow="hidden"><defs><clipPath id="clip0"><rect x="68" y="136" width="672" height="217"/></clipPath></defs><g clip-path="url(#clip0)" transform="translate(-68 -136)"><path d="M0 0 951.81 0 951.81 672.963 0 672.963Z" fill="#FFFFFF" transform="matrix(1 0 0 1.16089 -33.1261 -4.6922)"/><path d="M44.3274 88.57 77.0432 88.57 77.0432 88.57C101.538 88.57 121.371 68.7371 121.371 44.3274 121.371 19.8329 101.538 0 77.0432 0L44.3274 0 44.3274 0C19.8329 0 0 19.8329 0 44.3274 0 68.7371 19.8329 88.57 44.3274 88.57Z" stroke="#101843" stroke-width="0.84756" fill="#43B4FF" transform="matrix(1 0 0 1.16089 80.319 197.012)"/><text fill="#191919" font-family="Microsoft YaHei,Microsoft YaHei_MSFontService,sans-serif" font-weight="400" font-size="13" transform="matrix(0.84756 0 0 0.983925 106.678 242)">在前端页面输</text><text fill="#191919" font-family="Microsoft YaHei,Microsoft YaHei_MSFontService,sans-serif" font-weight="400" font-size="13" transform="matrix(0.84756 0 0 0.983925 106.678 259)">入进行的操作</text><path d="M0 0 14.4085 0 14.4085-0.254268 28.817-0.254268" stroke="#191919" stroke-width="0.84756" fill="none" transform="matrix(1 0 0 1.16089 201.648 248.423)"/><path d="M28.817-2.79695 33.9024-0.254268 28.817 2.37317 28.817-2.79695" stroke="#191919" stroke-width="0.84756" stroke-linecap="round" fill="#191919" transform="matrix(1 0 0 1.16089 201.648 248.423)"/><path d="M84.756 44.9207 84.756 5.93292C84.756 2.62744 82.1286 0 78.8231 0L5.93292 0C2.62744 0 0 2.62744 0 5.93292L0 44.9207C0 48.2262 2.62744 50.8536 5.93292 50.8536L78.8231 50.8536C82.1286 50.8536 84.756 48.2262 84.756 44.9207Z" stroke="#101843" stroke-width="0.84756" fill="#43B4FF" transform="matrix(1 0 0 1.16089 235.55 218.659)"/><text fill="#191919" font-family="Microsoft YaHei,Microsoft YaHei_MSFontService,sans-serif" font-weight="400" font-size="13" transform="matrix(0.84756 0 0 0.983925 237.924 241)">前端根据操作发</text><text fill="#191919" font-family="Microsoft YaHei,Microsoft YaHei_MSFontService,sans-serif" font-weight="400" font-size="13" transform="matrix(0.84756 0 0 0.983925 237.924 259)">送请求到服务器</text><path d="M84.756 50.8536 84.756 0 0 0 0 50.8536 84.756 50.8536Z" stroke="#101843" stroke-width="0.84756" fill="#43B4FF" transform="matrix(1 0 0 1.16089 354.209 218.659)"/><text fill="#191919" font-family="Microsoft YaHei,Microsoft YaHei_MSFontService,sans-serif" font-weight="400" font-size="13" transform="matrix(0.84756 0 0 0.983925 358.447 241)">服务器调用</text><text fill="#191919" font-family="Microsoft YaHei,Microsoft YaHei_MSFontService,sans-serif" font-weight="400" font-size="13" transform="matrix(0.84756 0 0 0.983925 413.538 241)">C</text><text fill="#191919" font-family="Microsoft YaHei,Microsoft YaHei_MSFontService,sans-serif" font-weight="400" font-size="13" transform="matrix(0.84756 0 0 0.983925 421.166 241)">程</text><text fill="#191919" font-family="Microsoft YaHei,Microsoft YaHei_MSFontService,sans-serif" font-weight="400" font-size="13" transform="matrix(0.84756 0 0 0.983925 368.024 259)">序处理请求</text><path d="M0 0 28.817 0" stroke="#191919" stroke-width="0.84756" fill="none" transform="matrix(1 0 0 1.16089 320.307 248.177)"/><path d="M28.817-2.54268 33.9024 0 28.817 2.54268 28.817-2.54268" stroke="#191919" stroke-width="0.84756" stroke-linecap="round" fill="#191919" transform="matrix(1 0 0 1.16089 320.307 248.177)"/><path d="M84.756 61.8719 84.756 0 0 0 0 61.8719 84.756 61.8719Z" stroke="#101843" stroke-width="0.84756" fill="#43B4FF" transform="matrix(1 0 0 1.16089 472.867 212.263)"/><text fill="#191919" font-family="Microsoft YaHei,Microsoft YaHei_MSFontService,sans-serif" font-weight="400" font-size="13" transform="matrix(0.84756 0 0 0.983925 488.547 232)">C</text><text fill="#191919" font-family="Microsoft YaHei,Microsoft YaHei_MSFontService,sans-serif" font-weight="400" font-size="13" transform="matrix(0.84756 0 0 0.983925 496.175 232)">程序调用</text><text fill="#191919" font-family="Microsoft YaHei,Microsoft YaHei_MSFontService,sans-serif" font-weight="400" font-size="13" transform="matrix(0.84756 0 0 0.983925 478.631 249)">MySQL</text><text fill="#191919" font-family="Microsoft YaHei,Microsoft YaHei_MSFontService,sans-serif" font-weight="400" font-size="13" transform="matrix(0.84756 0 0 0.983925 517.619 249)">实现数</text><text fill="#191919" font-family="Microsoft YaHei,Microsoft YaHei_MSFontService,sans-serif" font-weight="400" font-size="13" transform="matrix(0.84756 0 0 0.983925 486.683 266)">据处理操作</text><path d="M0 0 29.6646 0" stroke="#191919" stroke-width="0.84756" fill="none" transform="matrix(1 0 0 1.16089 438.965 248.177)"/><path d="M29.6646-2.54268 34.75 0 29.6646 2.54268 29.6646-2.54268" stroke="#191919" stroke-width="0.84756" stroke-linecap="round" fill="#191919" transform="matrix(1 0 0 1.16089 438.965 248.177)"/><path d="M46.8701 93.6554 77.9755 93.6554 77.9755 93.6554C103.911 93.6554 124.846 72.7207 124.846 46.8701 124.846 20.9347 103.911 0 77.9755 0L46.8701 0 46.8701 0C20.9347 0 0 20.9347 0 46.8701 0 72.7207 20.9347 93.6554 46.8701 93.6554Z" stroke="#101843" stroke-width="0.84756" fill="#43B4FF" transform="matrix(1 0 0 1.16089 591.526 194.061)"/><text fill="#191919" font-family="Microsoft YaHei,Microsoft YaHei_MSFontService,sans-serif" font-weight="400" font-size="13" transform="matrix(0.84756 0 0 0.983925 621.529 223)">C</text><text fill="#191919" font-family="Microsoft YaHei,Microsoft YaHei_MSFontService,sans-serif" font-weight="400" font-size="13" transform="matrix(0.84756 0 0 0.983925 629.157 223)">语言返回结</text><text fill="#191919" font-family="Microsoft YaHei,Microsoft YaHei_MSFontService,sans-serif" font-weight="400" font-size="13" transform="matrix(0.84756 0 0 0.983925 619.58 240)">果</text><text fill="#191919" font-family="Microsoft YaHei,Microsoft YaHei_MSFontService,sans-serif" font-weight="400" font-size="13" transform="matrix(0.84756 0 0 0.983925 630.598 240)">，</text><text fill="#191919" font-family="Microsoft YaHei,Microsoft YaHei_MSFontService,sans-serif" font-weight="400" font-size="13" transform="matrix(0.84756 0 0 0.983925 641.617 240)">服务器接</text><text fill="#191919" font-family="Microsoft YaHei,Microsoft YaHei_MSFontService,sans-serif" font-weight="400" font-size="13" transform="matrix(0.84756 0 0 0.983925 619.58 257)">收并展现在前</text><text fill="#191919" font-family="Microsoft YaHei,Microsoft YaHei_MSFontService,sans-serif" font-weight="400" font-size="13" transform="matrix(0.84756 0 0 0.983925 636.785 275)">端页面</text><path d="M0 0 23.7317 0.254268 28.817 0.254268" stroke="#191919" stroke-width="0.84756" fill="none" transform="matrix(1 0 0 1.16089 557.623 248.177)"/><path d="M28.817-2.28841 33.9024 0.254268 28.817 2.79695 28.817-2.28841" stroke="#191919" stroke-width="0.84756" stroke-linecap="round" fill="#191919" transform="matrix(1 0 0 1.16089 557.623 248.177)"/></g></svg>